<svg viewBox="18.432 12.807377049180328 476.16 131.65983606557378" version="1.1" xmlns:xlink="http://www.w3.org/1999/xlink" xmlns="http://www.w3.org/2000/svg" id="Layer_1" style="max-height: 500px" width="476.16" height="131.65983606557378">
  
  <defs>
    <style>
      .st0 {
        fill: url(#linear-gradient2);
      }

      .st1 {
        fill: url(#linear-gradient1);
      }

      .st2 {
        fill: url(#linear-gradient3);
      }

      .st3 {
        fill: url(#linear-gradient6);
      }

      .st4 {
        fill: url(#linear-gradient8);
      }

      .st5 {
        fill: url(#linear-gradient7);
      }

      .st6 {
        fill: url(#linear-gradient5);
      }

      .st7 {
        fill: url(#linear-gradient4);
      }

      .st8 {
        fill: url(#linear-gradient);
      }

      .st9 {
        font-family: GEDinarTwoMedium, 'GE Dinar Two Medium';
        font-size: 31.47px;
      }

      .st9, .st10 {
        fill: #202d5b;
      }

      .st11 {
        fill: #3fbeb3;
        font-family: Optima-Bold, Optima;
        font-size: 32.85px;
        font-weight: 700;
      }
    </style>
    <linearGradient gradientUnits="userSpaceOnUse" y2="77.61" x2="479.15" y1="77.61" x1="14.62" id="linear-gradient">
      <stop stop-color="#45bb89" offset="0"/>
      <stop stop-color="#25a0cf" offset=".5"/>
      <stop stop-color="#249ac9" offset=".58"/>
      <stop stop-color="#248cbb" offset=".68"/>
      <stop stop-color="#2373a2" offset=".78"/>
      <stop stop-color="#215280" offset=".9"/>
      <stop stop-color="#202d5b" offset="1"/>
    </linearGradient>
    <linearGradient xlink:href="#linear-gradient" y2="30.13" x2="479.15" y1="30.13" x1="14.62" id="linear-gradient1"/>
    <linearGradient xlink:href="#linear-gradient" y2="30.13" x2="479.15" y1="30.13" x1="14.62" id="linear-gradient2"/>
    <linearGradient xlink:href="#linear-gradient" x2="479.15" x1="14.62" id="linear-gradient3"/>
    <linearGradient xlink:href="#linear-gradient" y2="77.46" x2="479.15" y1="77.46" x1="14.62" id="linear-gradient4"/>
    <linearGradient xlink:href="#linear-gradient" y2="79.46" x2="479.15" y1="79.46" x1="14.62" id="linear-gradient5"/>
    <linearGradient xlink:href="#linear-gradient" y2="77.46" x2="479.15" y1="77.46" x1="14.62" id="linear-gradient6"/>
    <linearGradient xlink:href="#linear-gradient" y2="79.46" x2="479.15" y1="79.46" x1="14.62" id="linear-gradient7"/>
    <linearGradient xlink:href="#linear-gradient" y2="125.08" x2="479.15" y1="125.08" x1="14.62" id="linear-gradient8"/>
  </defs>
  <g>
    <g>
      <rect height="127.68" width="29.26" y="13.77" x="279.73" class="st8"/>
      <polygon points="344.37 46.5 334.92 30.13 325.48 13.77 344.37 13.77 363.27 13.77 353.82 30.13 344.37 46.5" class="st1"/>
      <polygon points="244.39 46.5 234.94 30.13 225.49 13.77 244.39 13.77 263.28 13.77 253.83 30.13 244.39 46.5" class="st0"/>
      <path d="M173.21,13.77c1.04,3.94,2.13,7.51,3.31,10.89,1.23,3.37,2.51,6.5,3.94,9.35,2.83,5.73,6.24,10.16,9.79,13.42,1.77,1.65,3.66,2.99,5.61,4.2.5.29.92.64,1.46.89.53.26,1.02.55,1.51.84.49.29,1.07.51,1.59.77.52.27,1.02.55,1.6.77,4.39,1.94,9.33,3.58,14.8,4.94l5.99,1.71c2.08.72,4.16,1.5,6.23,2.32,4.13,1.86,8.23,3.92,12.09,6.72,3.88,2.67,7.52,5.96,10.67,9.7,1.61,1.83,2.99,3.88,4.34,5.89l1.81,3.18c.61,1.04,1.05,2.19,1.56,3.28,1.93,4.42,3.13,9.04,3.63,13.57.51,4.54.33,8.99-.4,13.2-.74,4.22-2.02,8.22-3.79,11.93-1.76,3.7-3.94,7.18-6.87,10.09-1.09-3.94-2.22-7.49-3.45-10.86-1.27-3.36-2.58-6.47-4.04-9.3-1.45-2.83-3.03-5.37-4.7-7.58-1.68-2.21-3.44-4.08-5.23-5.69-.89-.81-1.84-1.52-2.74-2.23-.5-.32-.96-.65-1.43-.98-.43-.35-1-.59-1.46-.91l-.71-.46c-.25-.14-.52-.27-.77-.41-.53-.26-.98-.57-1.5-.83-1.1-.47-2.06-1.05-3.21-1.49-2.14-.99-4.56-1.79-6.98-2.62l-3.83-1.13-4.26-1.12c-8.26-2.08-16.71-5.59-24.39-11.11-7.66-5.46-14.37-13.33-18.07-22.26-3.76-8.91-4.5-18.4-2.94-26.78.78-4.21,2.09-8.19,3.89-11.89,1.79-3.68,4-7.14,6.94-10.03Z" class="st2"/>
      <g>
        <polygon points="19.6 141.15 48.86 141.15 121.9 13.77 92.65 13.77 19.6 141.15" class="st7"/>
        <polygon points="111.79 63.1 121.24 79.46 130.69 95.83 111.79 95.83 92.9 95.83 102.34 79.46 111.79 63.1" class="st6"/>
      </g>
      <g>
        <polygon points="492 141.15 462.74 141.15 389.7 13.77 418.95 13.77 492 141.15" class="st3"/>
        <polygon points="399.81 63.1 390.36 79.46 380.91 95.83 399.81 95.83 418.7 95.83 409.26 79.46 399.81 63.1" class="st5"/>
      </g>
      <polygon points="180.65 108.72 190.1 125.08 199.55 141.45 180.65 141.45 161.76 141.45 171.21 125.08 180.65 108.72" class="st4"/>
    </g>
    <g>
      <text transform="translate(18.35 183.83)" class="st9"><tspan y="0" x="0">أكاديمية المهارات التطبيقية للتدريب</tspan></text>
      <text transform="translate(25.66 227.04)" class="st11"><tspan y="0" x="0">Applied Skills Training Academy</tspan></text>
    </g>
  </g>
  <g>
    <path d="M477.43,43.7c-8.25,0-14.96-6.71-14.96-14.96s6.71-14.96,14.96-14.96,14.96,6.71,14.96,14.96-6.71,14.96-14.96,14.96ZM477.43,16.02c-7.01,0-12.71,5.7-12.71,12.71s5.7,12.71,12.71,12.71,12.71-5.7,12.71-12.71-5.7-12.71-12.71-12.71Z" class="st10"/>
    <path d="M471.81,36.13v-14.79h4.59c.99,0,1.72.02,2.18.05.46.04.9.16,1.31.38,1.25.66,1.88,1.69,1.88,3.08,0,1.02-.3,1.87-.91,2.54-.6.68-1.42,1.12-2.46,1.34.56.98,1.34,2.24,2.35,3.79.68,1.03,1.16,1.79,1.47,2.26l.84,1.34c-.27,0-.64-.02-1.11-.05-.47-.04-.75-.05-.85-.05-.27,0-.64.02-1.11.05-.47.04-.74.05-.83.05l-2.57-4.53-1.4-2.39h-.15v6.92c-.24,0-.45,0-.6-.02-.62-.06-.96-.09-1.01-.09-.24,0-.56.02-.95.05-.39.04-.61.05-.67.05ZM475.04,22.52v5.76c.1.01.19.02.28.02h.28c1.88,0,2.82-1.03,2.82-3.09,0-.34-.04-.7-.11-1.07-.13-.67-.46-1.13-.99-1.37-.36-.16-.91-.24-1.66-.24h-.63Z" class="st10"/>
  </g>
</svg>